<svg width="12" height="22" viewBox="0 0 12 22" fill="none" xmlns="http://www.w3.org/2000/svg">
<path fill-rule="evenodd" clip-rule="evenodd" d="M1.75 0.5C2.08152 0.5 2.39946 0.631696 2.63388 0.866117C2.8683 1.10054 3 1.41848 3 1.75V14.775L11.12 19.415C11.3995 19.5836 11.6019 19.8548 11.6841 20.1707C11.7662 20.4866 11.7216 20.8221 11.5596 21.1055C11.3977 21.3889 11.1313 21.5977 10.8175 21.6873C10.5036 21.7769 10.1671 21.7402 9.88 21.585L1.13 16.585C0.938682 16.4757 0.779649 16.3178 0.669014 16.1273C0.558378 15.9367 0.500071 15.7203 0.5 15.5V1.75C0.5 1.41848 0.631696 1.10054 0.866117 0.866117C1.10054 0.631696 1.41848 0.5 1.75 0.5V0.5Z" fill="#010101"/>
</svg>
